<svg width="832" height="241" viewBox="0 0 832 241" fill="none" xmlns="http://www.w3.org/2000/svg">
<path d="M34.668 153.179C34.884 154.043 35.1 155.051 35.316 156.203C35.604 157.427 35.748 158.183 35.748 158.471C35.748 159.263 35.28 159.983 34.344 160.631C33.48 161.351 32.508 161.711 31.428 161.711C30.78 161.711 30.132 161.063 29.484 159.767C28.836 158.543 28.368 156.959 28.08 155.015C26.784 147.455 25.632 135.755 24.624 119.915L23.112 96.9111C17.496 102.527 11.7 107.279 5.724 111.167C4.14 112.175 3.024 112.679 2.376 112.679C1.656 112.679 1.08 112.463 0.648 112.031C0.216 111.527 0 111.059 0 110.627C0 109.691 0.828 108.683 2.484 107.603C6.156 105.227 9.432 102.707 12.312 100.043C15.264 97.3791 18.216 94.5351 21.168 91.5111L22.68 89.9991V89.8911V88.271V87.1911C22.68 86.6871 22.788 86.3631 23.004 86.219C23.148 86.0751 23.292 86.0031 23.436 86.0031C23.868 85.7871 24.372 85.6791 24.948 85.6791C26.388 85.6791 27.54 85.8951 28.404 86.3271C29.268 86.7591 29.7 87.4071 29.7 88.271C29.7 89.1351 29.268 90.1431 28.404 91.295C28.764 93.0231 28.98 94.7511 29.052 96.4791C29.196 100.727 29.736 108.935 30.672 121.103C31.608 133.199 32.328 141.155 32.832 144.971C33.192 146.843 33.804 149.579 34.668 153.179ZM79.8584 153.179C80.0744 154.043 80.2904 155.051 80.5064 156.203C80.7944 157.427 80.9384 158.183 80.9384 158.471C80.9384 159.263 80.4704 159.983 79.5344 160.631C78.6704 161.351 77.6984 161.711 76.6184 161.711C75.9704 161.711 75.3224 161.063 74.6744 159.767C74.0264 158.543 73.5584 156.959 73.2704 155.015C71.9744 147.455 70.8224 135.755 69.8144 119.915L68.3024 96.9111C62.6864 102.527 56.8904 107.279 50.9144 111.167C49.3304 112.175 48.2144 112.679 47.5664 112.679C46.8464 112.679 46.2704 112.463 45.8384 112.031C45.4064 111.527 45.1904 111.059 45.1904 110.627C45.1904 109.691 46.0184 108.683 47.6744 107.603C51.3464 105.227 54.6224 102.707 57.5024 100.043C60.4544 97.3791 63.4064 94.5351 66.3584 91.5111L67.8704 89.9991V89.8911V88.271V87.1911C67.8704 86.6871 67.9784 86.3631 68.1944 86.219C68.3384 86.0751 68.4824 86.0031 68.6264 86.0031C69.0584 85.7871 69.5624 85.6791 70.1384 85.6791C71.5784 85.6791 72.7304 85.8951 73.5944 86.3271C74.4584 86.7591 74.8904 87.4071 74.8904 88.271C74.8904 89.1351 74.4584 90.1431 73.5944 91.295C73.9544 93.0231 74.1704 94.7511 74.2424 96.4791C74.3864 100.727 74.9264 108.935 75.8624 121.103C76.7984 133.199 77.5184 141.155 78.0224 144.971C78.3824 146.843 78.9944 149.579 79.8584 153.179ZM105.393 152.531C104.025 152.531 102.765 151.739 101.613 150.155C100.533 148.643 99.6328 146.951 98.9128 145.079C98.2648 143.135 97.9408 141.875 97.9408 141.299C97.9408 140.507 98.3008 139.751 99.0208 139.031C99.8128 138.311 100.605 137.951 101.397 137.951C101.901 137.951 102.297 138.167 102.585 138.599C102.873 138.959 103.305 139.607 103.881 140.543C104.601 141.839 105.213 142.667 105.717 143.027C106.653 143.747 107.409 145.079 107.985 147.023C108.633 148.967 108.957 150.263 108.957 150.911C108.957 151.991 107.769 152.531 105.393 152.531ZM145.56 153.179C145.776 154.043 145.992 155.051 146.208 156.203C146.496 157.427 146.64 158.183 146.64 158.471C146.64 159.263 146.172 159.983 145.236 160.631C144.372 161.351 143.4 161.711 142.32 161.711C141.672 161.711 141.024 161.063 140.376 159.767C139.728 158.543 139.26 156.959 138.972 155.015C137.676 147.455 136.524 135.755 135.516 119.915L134.004 96.9111C128.388 102.527 122.592 107.279 116.616 111.167C115.032 112.175 113.916 112.679 113.268 112.679C112.548 112.679 111.972 112.463 111.54 112.031C111.108 111.527 110.892 111.059 110.892 110.627C110.892 109.691 111.72 108.683 113.376 107.603C117.048 105.227 120.324 102.707 123.204 100.043C126.156 97.3791 129.108 94.5351 132.06 91.5111L133.572 89.9991V89.8911V88.271V87.1911C133.572 86.6871 133.68 86.3631 133.896 86.219C134.04 86.0751 134.184 86.0031 134.328 86.0031C134.76 85.7871 135.264 85.6791 135.84 85.6791C137.28 85.6791 138.432 85.8951 139.296 86.3271C140.16 86.7591 140.592 87.4071 140.592 88.271C140.592 89.1351 140.16 90.1431 139.296 91.295C139.656 93.0231 139.872 94.7511 139.944 96.4791C140.088 100.727 140.628 108.935 141.564 121.103C142.5 133.199 143.22 141.155 143.724 144.971C144.084 146.843 144.696 149.579 145.56 153.179ZM190.75 153.179C190.966 154.043 191.182 155.051 191.398 156.203C191.686 157.427 191.83 158.183 191.83 158.471C191.83 159.263 191.362 159.983 190.426 160.631C189.562 161.351 188.59 161.711 187.51 161.711C186.862 161.711 186.214 161.063 185.566 159.767C184.918 158.543 184.45 156.959 184.162 155.015C182.866 147.455 181.714 135.755 180.706 119.915L179.194 96.9111C173.578 102.527 167.782 107.279 161.806 111.167C160.222 112.175 159.106 112.679 158.458 112.679C157.738 112.679 157.162 112.463 156.73 112.031C156.298 111.527 156.082 111.059 156.082 110.627C156.082 109.691 156.91 108.683 158.566 107.603C162.238 105.227 165.514 102.707 168.394 100.043C171.346 97.3791 174.298 94.5351 177.25 91.5111L178.762 89.9991V89.8911V88.271V87.1911C178.762 86.6871 178.87 86.3631 179.086 86.219C179.23 86.0751 179.374 86.0031 179.518 86.0031C179.95 85.7871 180.454 85.6791 181.03 85.6791C182.47 85.6791 183.622 85.8951 184.486 86.3271C185.35 86.7591 185.782 87.4071 185.782 88.271C185.782 89.1351 185.35 90.1431 184.486 91.295C184.846 93.0231 185.062 94.7511 185.134 96.4791C185.278 100.727 185.818 108.935 186.754 121.103C187.69 133.199 188.41 141.155 188.914 144.971C189.274 146.843 189.886 149.579 190.75 153.179ZM238.976 83.8431C237.752 83.8431 236.492 83.3391 235.196 82.3311C233.972 81.3231 233.36 80.4951 233.36 79.8471C233.36 79.0551 233.72 78.2991 234.44 77.5791C235.232 76.8591 236.024 76.4991 236.816 76.4991C237.896 76.8591 238.796 77.4351 239.516 78.227C240.092 78.8031 240.74 79.5591 241.46 80.4951C242.18 81.4311 242.54 82.0071 242.54 82.223C242.54 83.3031 241.352 83.8431 238.976 83.8431ZM242.216 152.315C241.208 152.243 240.452 150.623 239.948 147.455C239.516 144.287 239.048 138.275 238.544 129.419C238.256 123.587 238.004 117.899 237.788 112.355C237.572 106.739 237.428 102.419 237.356 99.3951C237.356 98.6031 237.464 98.0271 237.68 97.6671C237.968 97.2351 238.472 97.0191 239.192 97.0191C240.848 97.0191 241.892 97.7031 242.324 99.0711C242.756 100.439 242.972 103.067 242.972 106.955L242.864 119.699C242.864 126.971 243.08 132.803 243.512 137.195C243.512 137.411 243.836 139.715 244.484 144.107C244.988 147.131 245.24 149.147 245.24 150.155C245.24 150.875 244.916 151.415 244.268 151.775C243.692 152.207 243.008 152.387 242.216 152.315ZM268.436 153.503C265.34 153.503 263.252 153.215 262.172 152.639C261.092 152.063 260.552 151.271 260.552 150.263C260.552 149.615 261.38 148.499 263.036 146.915C264.692 145.259 265.808 144.431 266.384 144.431C267.248 144.431 267.68 144.611 267.68 144.971C267.68 145.259 267.5 145.547 267.14 145.835C266.78 146.123 266.6 146.375 266.6 146.591C266.6 146.879 267.032 147.167 267.896 147.455C268.832 147.743 269.948 147.887 271.244 147.887C274.268 147.887 277.292 147.347 280.316 146.267C283.412 145.115 285.932 143.639 287.876 141.839C289.82 140.039 290.792 138.131 290.792 136.115C290.792 134.171 290.18 132.623 288.956 131.471C287.732 130.319 286.184 129.491 284.312 128.987C282.512 128.411 279.452 127.619 275.132 126.611C270.38 125.531 266.672 124.595 264.008 123.803C261.416 122.939 259.328 121.895 257.744 120.671C256.16 119.375 255.368 117.755 255.368 115.811C255.368 112.355 257.06 109.187 260.444 106.307C263.828 103.427 267.716 101.159 272.108 99.5031C276.5 97.8471 279.884 97.0191 282.26 97.0191C284.708 97.0191 285.932 97.7391 285.932 99.1791C285.932 100.043 285.644 101.015 285.068 102.095C284.492 103.103 283.628 103.607 282.476 103.607C282.044 103.607 281.576 103.463 281.072 103.175C280.568 102.815 280.064 102.635 279.56 102.635C278.12 102.635 275.852 103.103 272.756 104.039C269.66 104.975 266.852 106.379 264.332 108.251C261.812 110.123 260.552 112.391 260.552 115.055C260.552 116.783 261.524 118.079 263.468 118.943C265.484 119.735 269.192 120.743 274.592 121.967C275.24 122.183 275.888 122.363 276.536 122.507C277.184 122.579 277.76 122.687 278.264 122.831C283.808 124.127 288.056 125.603 291.008 127.259C293.96 128.915 295.436 131.399 295.436 134.711C295.436 137.879 294.14 140.939 291.548 143.891C289.028 146.771 285.68 149.075 281.504 150.803C277.328 152.603 272.972 153.503 268.436 153.503ZM374.861 154.475C374.141 154.475 373.529 154.295 373.025 153.935C372.521 153.647 372.269 153.215 372.269 152.639L372.485 145.187C372.845 136.331 373.025 129.095 373.025 123.479C373.025 115.271 372.449 109.547 371.297 106.307C370.145 102.995 368.813 101.339 367.301 101.339C363.917 101.339 359.669 106.595 354.557 117.107C349.445 127.547 344.513 138.959 339.761 151.343C339.401 152.351 338.897 153.323 338.249 154.259C337.673 155.195 337.061 155.663 336.413 155.663C334.829 155.663 334.037 155.159 334.037 154.151C334.037 149.759 333.857 141.551 333.497 129.527C333.137 117.431 332.849 109.475 332.633 105.659C331.985 92.7711 331.373 84.8151 330.797 81.791C330.221 78.767 329.933 77.1471 329.933 76.9311C329.933 76.211 330.329 75.671 331.121 75.311C331.913 74.951 332.921 74.771 334.145 74.771C335.153 74.771 335.873 77.075 336.305 81.6831C336.809 86.2191 337.169 92.0511 337.385 99.1791L337.493 102.203C337.637 104.435 337.745 110.843 337.817 121.427C337.889 131.939 337.925 139.679 337.925 144.647C341.237 136.367 344.333 128.987 347.213 122.507C350.165 116.027 353.549 109.979 357.365 104.363C361.181 98.6751 364.709 95.8311 367.949 95.8311C370.685 95.8311 372.989 98.1351 374.861 102.743C376.733 107.279 377.669 114.083 377.669 123.155C377.669 127.187 377.741 132.803 377.885 140.003L377.993 151.343C377.993 152.207 377.705 152.927 377.129 153.503C376.553 154.151 375.797 154.475 374.861 154.475ZM430.437 123.911C430.437 125.207 429.465 128.051 427.521 132.443C425.649 136.835 422.769 140.903 418.881 144.647C415.065 148.391 410.349 150.263 404.733 150.263C400.125 150.263 396.273 148.823 393.177 145.943C390.081 143.063 388.533 138.635 388.533 132.659C388.533 127.043 389.829 121.499 392.421 116.027C395.013 110.483 398.397 105.983 402.573 102.527C406.749 98.9991 411.069 97.2351 415.533 97.2351C418.197 97.2351 420.429 97.8471 422.229 99.0711C424.101 100.223 425.037 101.915 425.037 104.147C425.037 106.667 423.597 109.115 420.717 111.491C417.909 113.867 414.237 115.955 409.701 117.755C405.165 119.555 400.485 120.851 395.661 121.643C394.797 124.955 394.365 128.195 394.365 131.363C394.365 135.539 395.337 138.779 397.281 141.083C399.297 143.387 402.141 144.539 405.813 144.539C411.357 144.539 415.857 142.559 419.313 138.599C422.769 134.639 425.649 130.175 427.953 125.207C428.097 124.919 428.349 124.379 428.709 123.587C429.069 122.723 429.393 122.291 429.681 122.291C430.185 122.291 430.437 122.831 430.437 123.911ZM414.237 101.663C411.501 101.663 408.873 102.563 406.353 104.363C403.833 106.163 401.709 108.323 399.981 110.843C398.325 113.363 397.245 115.595 396.741 117.539C400.053 117.179 403.545 116.243 407.217 114.731C410.889 113.219 413.949 111.563 416.397 109.763C418.917 107.963 420.177 106.487 420.177 105.335C420.177 104.183 419.565 103.283 418.341 102.635C417.189 101.987 415.821 101.663 414.237 101.663ZM469.951 107.819C469.447 107.819 468.943 107.603 468.439 107.171C468.007 106.739 467.503 106.127 466.927 105.335C466.423 104.615 465.739 104.003 464.875 103.499C464.083 102.995 463.255 102.743 462.391 102.743C460.303 102.743 457.495 105.515 453.967 111.059C450.439 116.531 446.983 123.443 443.599 131.795C443.671 133.451 443.779 135.539 443.923 138.059C444.139 140.579 444.283 142.451 444.355 143.675L444.679 147.995C444.679 149.003 444.463 149.867 444.031 150.587C443.599 151.379 442.807 151.775 441.655 151.775C440.431 151.775 439.639 150.155 439.279 146.915C438.919 143.603 438.703 138.815 438.631 132.551C438.559 130.967 438.487 128.699 438.415 125.747C438.415 122.795 438.343 119.267 438.199 115.163C437.983 108.971 437.875 104.543 437.875 101.879C437.875 100.223 438.883 99.3951 440.899 99.3951C442.123 99.3951 442.843 99.9351 443.059 101.015C443.347 102.023 443.491 104.003 443.491 106.955V124.127C445.651 118.583 447.991 113.795 450.511 109.763C453.031 105.731 455.479 102.671 457.855 100.583C460.303 98.4231 462.463 97.3431 464.335 97.3431C465.919 97.3431 467.431 97.7031 468.871 98.4231C470.311 99.1431 471.463 100.079 472.327 101.231C473.191 102.311 473.623 103.355 473.623 104.363C473.623 105.011 473.155 105.767 472.219 106.631C471.355 107.423 470.599 107.819 469.951 107.819ZM520.502 123.911C520.502 125.207 519.53 128.051 517.586 132.443C515.714 136.835 512.834 140.903 508.946 144.647C505.13 148.391 500.414 150.263 494.798 150.263C490.19 150.263 486.338 148.823 483.242 145.943C480.146 143.063 478.598 138.635 478.598 132.659C478.598 127.043 479.894 121.499 482.486 116.027C485.078 110.483 488.462 105.983 492.638 102.527C496.814 98.9991 501.134 97.2351 505.598 97.2351C508.262 97.2351 510.494 97.8471 512.294 99.0711C514.166 100.223 515.102 101.915 515.102 104.147C515.102 106.667 513.662 109.115 510.782 111.491C507.974 113.867 504.302 115.955 499.766 117.755C495.23 119.555 490.55 120.851 485.726 121.643C484.862 124.955 484.43 128.195 484.43 131.363C484.43 135.539 485.402 138.779 487.346 141.083C489.362 143.387 492.206 144.539 495.878 144.539C501.422 144.539 505.922 142.559 509.378 138.599C512.834 134.639 515.714 130.175 518.018 125.207C518.162 124.919 518.414 124.379 518.774 123.587C519.134 122.723 519.458 122.291 519.746 122.291C520.25 122.291 520.502 122.831 520.502 123.911ZM504.302 101.663C501.566 101.663 498.938 102.563 496.418 104.363C493.898 106.163 491.774 108.323 490.046 110.843C488.39 113.363 487.31 115.595 486.806 117.539C490.118 117.179 493.61 116.243 497.282 114.731C500.954 113.219 504.014 111.563 506.462 109.763C508.982 107.963 510.242 106.487 510.242 105.335C510.242 104.183 509.63 103.283 508.406 102.635C507.254 101.987 505.886 101.663 504.302 101.663Z" fill="#333333"/>
<path d="M764.25 153.312C752.042 154.729 739.917 156.271 727.709 157.437C709.709 159.187 691.709 160.937 673.709 162.187C657.834 163.271 641.875 163.646 625.959 164.229C623.167 164.312 620.292 164.104 617.542 163.562C610.542 162.187 607.75 159.312 607.084 152.271C605.709 138.104 604.417 123.896 603.334 109.687C602.667 100.771 605.334 97.5206 614.167 97.4373C646.334 97.1456 678.542 97.229 710.709 97.1873C725.417 97.1873 740.167 97.1873 755.459 97.1873C754.959 93.8123 754.459 89.4373 753.709 85.1456C753.167 82.0206 753.959 80.1039 757.5 80.7289C760.542 81.2289 764 81.2706 766.5 82.8123C784.334 93.6456 802 104.771 819.709 115.812C820.959 116.604 822.084 117.646 823.167 118.646C829.167 124.187 829.292 127.896 823.042 132.896C809.625 143.729 796 154.354 782.459 165.021C781.167 166.021 779.667 166.812 778.25 167.646C774.584 169.854 771.542 169.271 769.625 165.312C767.75 161.437 766.125 157.479 764.25 153.312ZM761.625 89.7289C762.417 93.1456 763.042 95.8539 763.667 98.5623C764.584 102.729 763.084 105.521 758.792 106.062C753.375 106.729 747.917 107.312 742.5 107.271C709.834 107.104 677.167 106.687 644.5 106.396C633.125 106.312 621.75 106.396 610.334 106.396C612.459 122.229 614.584 138.229 616.709 154.437C634.792 153.521 652.667 152.646 670.542 151.729C699.5 150.271 728.5 148.687 757.459 147.396C769.167 146.896 769.167 147.187 772.709 158.562C772.792 158.812 773.25 160.104 773.792 159.479C788 148.146 802.292 136.729 816.875 125.104C798.334 113.229 780.25 101.646 761.625 89.7289Z" fill="black"/>
</svg>
