<svg width="620" height="373" viewBox="0 0 620 373" fill="none" xmlns="http://www.w3.org/2000/svg">
<path d="M84.7802 361.651C84.0604 361.665 83.3744 361.57 82.7224 361.367C82.069 361.091 81.0874 360.606 79.7778 359.911C75.1914 357.335 69.2026 354.858 61.8115 352.479C58.5513 351.462 54.6786 350.42 50.1932 349.354C45.7785 348.215 42.3058 347.382 39.7752 346.854L40.7991 360.769C40.9085 362.711 41.1916 364.326 41.6485 365.614C42.1067 366.973 42.3393 367.833 42.3462 368.193C42.3615 368.985 41.978 369.64 41.1959 370.159C40.4151 370.75 39.5928 371.054 38.7289 371.071C37.6491 371.092 36.9507 370.349 36.6337 368.843C36.6309 368.699 36.5105 368.053 36.2723 366.905C36.1062 365.756 36.003 364.138 35.9629 362.05C35.9366 360.683 35.7365 357.77 35.3626 353.312C35.2616 351.802 35.1619 350.364 35.0636 348.997C34.9639 347.559 34.9036 346.3 34.8829 345.22C34.6627 345.008 34.3699 344.762 34.0045 344.481C33.711 344.198 33.4514 343.807 33.2257 343.308C32.9973 342.664 32.8042 341.983 32.6464 341.266C32.4885 340.549 32.4062 340.011 32.3992 339.651C32.3895 339.147 32.5259 338.748 32.8083 338.455C33.0907 338.161 33.5164 337.829 34.0854 337.458C33.3071 319.47 32.8931 309.18 32.8432 306.588C32.7988 304.285 32.794 302.16 32.8286 300.215C32.8631 298.27 32.8742 296.974 32.8617 296.326C32.4312 296.406 31.1389 296.611 28.9848 296.941C26.8308 297.27 25.1086 297.591 23.8184 297.904C19.2321 299.073 15.7608 300.184 13.4046 301.237C10.9751 302.22 8.6563 303.345 6.44826 304.612C5.8087 305.056 5.20374 305.428 4.63338 305.727C3.98966 305.955 3.37985 306.075 2.80396 306.086C2.22806 306.097 1.71931 305.855 1.27769 305.359C0.834689 304.792 0.605569 304.112 0.59033 303.32C0.564009 301.952 2.83711 300.324 7.40962 298.436C11.9821 296.548 16.9568 294.976 22.3336 293.72C25.3446 293.014 29.1855 292.4 33.8563 291.878C38.5258 291.284 42.8761 290.948 46.9074 290.871C53.8181 290.738 59.6996 291.381 64.5518 292.799C69.4759 294.217 73.1881 296.27 75.6883 298.958C78.2605 301.645 79.5805 304.753 79.6484 308.28C79.7357 312.815 78.5147 316.727 75.9855 320.017C73.4564 323.306 70.055 326.18 65.7815 328.638C61.58 331.096 55.8371 333.907 48.5526 337.072C46.6976 337.971 44.8412 338.799 42.9834 339.555C41.1975 340.31 39.9835 340.837 39.3411 341.138C39.3494 341.569 39.3917 341.893 39.4678 342.107C47.2756 343.685 54.9803 345.517 62.5818 347.604L64.8619 348.208C72.7542 350.432 78.5851 352.192 82.3547 353.488C86.123 354.712 88.0154 355.756 88.032 356.62C88.0486 357.483 87.7088 358.534 87.0125 359.772C86.3162 361.009 85.5721 361.636 84.7802 361.651ZM46.1329 295.53C41.6697 295.616 38.8636 295.742 37.7146 295.908C37.6523 296.414 37.5672 297.604 37.4592 299.478C37.4233 301.351 37.4233 303.223 37.4593 305.095L38.2237 322.364L38.9133 335.745C39.5598 335.66 40.8133 335.312 42.6739 334.7C44.6051 334.015 46.213 333.372 47.4977 332.771C56.5693 328.924 63.3014 325.122 67.6939 321.364C72.1571 317.534 74.3422 313.207 74.2494 308.384C74.2037 306.008 73.1176 303.833 70.9912 301.857C68.8648 299.882 65.6662 298.323 61.3955 297.181C57.1953 295.966 52.1078 295.415 46.1329 295.53ZM131.419 337.853C131.444 339.149 130.527 342.011 128.668 346.44C126.881 350.867 124.079 354.99 120.264 358.808C116.521 362.625 111.842 364.587 106.227 364.695C101.62 364.784 97.7406 363.418 94.5898 360.598C91.4389 357.778 89.806 353.381 89.6911 347.406C89.583 341.791 90.7721 336.223 93.2583 330.702C95.7432 325.109 99.04 320.545 103.149 317.009C107.256 313.402 111.541 311.555 116.004 311.469C118.668 311.418 120.911 311.987 122.735 313.176C124.628 314.292 125.597 315.965 125.64 318.197C125.688 320.716 124.296 323.192 121.462 325.623C118.7 328.052 115.069 330.21 110.568 332.097C106.068 333.984 101.414 335.37 96.6058 336.255C95.8057 339.583 95.4361 342.831 95.497 345.998C95.5774 350.173 96.6115 353.394 98.5995 355.66C100.659 357.925 103.525 359.022 107.196 358.951C112.739 358.845 117.2 356.778 120.58 352.753C123.959 348.727 126.752 344.208 128.96 339.197C129.099 338.906 129.34 338.361 129.685 337.563C130.028 336.692 130.344 336.254 130.632 336.248C131.136 336.238 131.398 336.773 131.419 337.853ZM114.794 315.921C112.058 315.974 109.448 316.924 106.963 318.772C104.478 320.62 102.396 322.821 100.717 325.374C99.11 327.925 98.0731 330.177 97.6066 332.131C100.911 331.707 104.384 330.704 108.027 329.122C111.669 327.539 114.696 325.825 117.109 323.978C119.594 322.13 120.826 320.63 120.803 319.478C120.781 318.326 120.152 317.438 118.916 316.814C117.752 316.188 116.378 315.891 114.794 315.921ZM150.007 367.093C146.911 367.153 144.818 366.905 143.727 366.35C142.636 365.795 142.081 365.013 142.062 364.005C142.049 363.357 142.856 362.226 144.481 360.61C146.105 358.923 147.205 358.073 147.78 358.062C148.644 358.046 149.08 358.217 149.087 358.577C149.092 358.865 148.918 359.157 148.563 359.451C148.209 359.746 148.034 360.002 148.038 360.218C148.044 360.506 148.481 360.785 149.35 361.057C150.292 361.327 151.41 361.449 152.706 361.424C155.73 361.366 158.743 360.768 161.745 359.63C164.819 358.418 167.31 356.894 169.219 355.057C171.128 353.22 172.063 351.294 172.024 349.278C171.987 347.335 171.345 345.799 170.099 344.67C168.853 343.542 167.289 342.744 165.408 342.276C163.597 341.735 160.523 341.002 156.184 340.077C151.412 339.089 147.687 338.224 145.008 337.484C142.4 336.67 140.292 335.666 138.685 334.473C137.076 333.208 136.253 331.603 136.216 329.659C136.149 326.204 137.78 323.004 141.108 320.06C144.436 317.115 148.28 314.773 152.639 313.032C156.998 311.292 160.366 310.399 162.741 310.354C165.189 310.306 166.427 311.003 166.454 312.442C166.471 313.306 166.202 314.284 165.646 315.375C165.09 316.393 164.236 316.914 163.084 316.936C162.652 316.944 162.181 316.81 161.672 316.531C161.161 316.181 160.654 316.011 160.15 316.02C158.71 316.048 156.452 316.56 153.374 317.555C150.297 318.55 147.516 320.008 145.033 321.928C142.549 323.849 141.333 326.14 141.384 328.804C141.418 330.532 142.414 331.809 144.375 332.635C146.406 333.388 150.132 334.325 155.555 335.444C156.207 335.648 156.858 335.815 157.509 335.947C158.158 336.006 158.736 336.103 159.243 336.238C164.811 337.427 169.086 338.821 172.07 340.42C175.053 342.019 176.576 344.474 176.64 347.785C176.701 350.952 175.464 354.037 172.929 357.038C170.465 359.966 167.162 362.334 163.02 364.142C158.88 366.022 154.542 367.006 150.007 367.093ZM225.159 363.81C223.719 363.838 222.359 362.352 221.077 359.352C219.867 356.351 219.087 353.233 218.736 350C218.389 346.91 218.052 340.651 217.727 331.223C217.626 329.713 217.561 328.202 217.532 326.69C217.501 325.107 217.439 323.776 217.347 322.697C215.355 327.704 212.62 333.41 209.142 339.814C205.665 346.218 202.134 351.723 198.55 356.329C195.038 360.933 192.13 363.258 189.827 363.302C187.451 363.348 185.843 362.119 185.003 359.614C184.235 357.109 183.798 353.12 183.693 347.649C183.594 342.538 184.131 336.731 185.302 330.227C186.545 323.722 187.998 318.761 189.66 315.345C190.351 313.819 190.943 312.799 191.438 312.286C191.93 311.7 192.501 311.401 193.149 311.389C194.948 311.354 195.855 311.697 195.869 312.417C195.876 312.776 195.532 313.611 194.837 314.921C192.963 318.558 191.354 322.909 190.011 327.976C188.668 333.043 188.079 339.823 188.242 348.318C188.352 354.005 189.198 356.833 190.782 356.803C192.654 356.767 195.134 354.666 198.222 350.502C201.381 346.265 204.489 341.236 207.546 335.416C210.602 329.596 212.917 324.547 214.491 320.268C215.04 318.817 215.645 316.573 216.306 313.536C216.499 312.308 216.698 311.44 216.904 310.932C217.109 310.351 217.356 310.059 217.643 310.053C218.435 310.038 219.305 310.345 220.254 310.975C221.202 311.605 221.683 312.28 221.697 313C221.763 316.455 221.986 322.392 222.364 330.81C222.812 339.155 223.248 344.944 223.67 348.176C224.012 350.978 224.558 353.164 225.309 354.734C226.131 356.302 226.911 357.548 227.649 358.47C228.385 359.32 228.756 359.853 228.76 360.069C228.782 361.22 228.475 362.126 227.84 362.787C227.205 363.447 226.311 363.788 225.159 363.81ZM241.205 361.125C240.341 361.142 239.494 360.15 238.663 358.15C237.903 356.076 237.483 352.951 237.403 348.776C237.318 340.64 237.237 330.812 237.159 319.291C237.154 307.769 237.167 299.091 237.198 293.258C237.23 291.169 237.553 289.218 238.166 287.406C238.851 285.593 240.058 284.669 241.785 284.636C242.361 284.625 242.727 284.942 242.884 285.587C243.111 286.159 243.241 287.308 243.274 289.036C243.276 289.108 243.245 289.361 243.181 289.794C243.188 290.154 243.201 290.838 243.22 291.846C242.289 310.803 241.996 329.28 242.343 347.277C242.387 349.58 242.938 352.018 243.996 354.59C245.125 357.161 245.692 358.518 245.694 358.662C245.708 359.382 245.251 359.967 244.324 360.417C243.396 360.867 242.357 361.103 241.205 361.125ZM294.341 320.243C287.741 321.523 284.046 322.242 283.257 322.401L276.261 323.724C276.333 327.467 276.444 331.39 276.595 335.492C276.818 339.592 277.068 343.188 277.343 346.279C277.711 350.449 278.277 353.643 279.04 355.86C279.803 358.078 280.223 359.33 280.3 359.617C280.314 360.337 279.859 360.994 278.934 361.587C278.083 362.252 277.261 362.592 276.469 362.607C276.037 362.615 275.675 362.478 275.381 362.196C275.089 361.985 274.829 361.594 274.602 361.023C274.151 360.023 273.683 358.16 273.198 355.433C272.786 352.704 272.44 349.686 272.16 346.379C271.887 343.432 271.642 340.016 271.423 336.131C271.275 332.173 271.165 328.359 271.095 324.687C267.076 325.413 262.952 326.284 258.723 327.302C254.923 328.167 252.663 328.607 251.943 328.621C251.079 328.637 250.246 328.401 249.445 327.913C248.715 327.423 248.342 326.746 248.325 325.882C248.307 324.946 248.619 324.328 249.262 324.027C249.904 323.727 250.981 323.562 252.493 323.533C253.573 323.512 255.153 323.302 257.234 322.902C259.313 322.43 260.639 322.116 261.212 321.961C266.017 320.932 269.281 320.258 271.003 319.936C270.974 318.425 270.864 316.446 270.673 314.002C270.465 310.693 270.345 308.175 270.311 306.447C270.257 303.64 270.288 301.479 270.403 299.964C270.588 298.376 270.921 296.966 271.401 295.732C271.95 294.281 273.016 293.541 274.599 293.51C275.247 293.498 275.681 293.597 275.901 293.809C276.121 294.021 276.237 294.415 276.248 294.991C276.256 295.423 276.101 296.686 275.781 298.78C275.461 300.875 275.335 303.65 275.401 307.105C275.452 309.769 275.582 312.755 275.789 316.064L275.954 318.977C279.183 318.411 285.564 316.956 295.097 314.612C295.67 314.457 296.128 313.944 296.472 313.073C296.887 312.201 297.311 311.761 297.743 311.752C298.534 311.737 299.335 312.19 300.145 313.11C301.026 313.958 301.475 314.849 301.493 315.785C301.516 317.009 300.995 317.955 299.927 318.624C298.932 319.291 297.07 319.831 294.341 320.243ZM336.42 293.833C335.196 293.856 333.927 293.377 332.612 292.394C331.368 291.41 330.741 290.594 330.728 289.946C330.713 289.154 331.058 288.391 331.764 287.657C332.542 286.922 333.327 286.547 334.119 286.532C335.206 286.871 336.117 287.429 336.852 288.207C337.439 288.772 338.101 289.516 338.839 290.438C339.577 291.36 339.948 291.929 339.952 292.145C339.973 293.224 338.796 293.787 336.42 293.833ZM340.977 362.23C339.968 362.177 339.181 360.572 338.616 357.414C338.123 354.255 337.539 348.253 336.865 339.409C336.465 333.583 336.103 327.901 335.781 322.362C335.457 316.752 335.23 312.435 335.1 309.413C335.084 308.621 335.181 308.043 335.39 307.679C335.67 307.242 336.17 307.016 336.889 307.002C338.545 306.97 339.602 307.634 340.06 308.994C340.519 310.353 340.785 312.976 340.86 316.864L340.997 329.607C341.137 336.878 341.465 342.705 341.982 347.088C341.986 347.304 342.354 349.601 343.086 353.98C343.649 356.993 343.939 359.004 343.959 360.012C343.973 360.732 343.659 361.278 343.018 361.65C342.45 362.093 341.77 362.287 340.977 362.23ZM367.214 362.913C364.119 362.973 362.026 362.725 360.935 362.17C359.844 361.615 359.289 360.833 359.269 359.825C359.257 359.178 360.063 358.046 361.689 356.43C363.312 354.743 364.412 353.893 364.988 353.882C365.852 353.866 366.287 354.037 366.294 354.397C366.3 354.685 366.125 354.977 365.771 355.271C365.417 355.566 365.242 355.822 365.246 356.038C365.251 356.326 365.689 356.605 366.558 356.877C367.499 357.147 368.618 357.269 369.914 357.244C372.937 357.186 375.95 356.588 378.953 355.45C382.026 354.239 384.517 352.714 386.426 350.877C388.335 349.04 389.27 347.114 389.232 345.098C389.194 343.155 388.553 341.619 387.307 340.49C386.061 339.362 384.497 338.564 382.616 338.096C380.805 337.555 377.73 336.822 373.392 335.897C368.62 334.909 364.894 334.044 362.216 333.304C359.608 332.49 357.5 331.486 355.893 330.293C354.284 329.028 353.461 327.423 353.424 325.48C353.357 322.024 354.988 318.824 358.316 315.88C361.644 312.935 365.487 310.593 369.847 308.852C374.206 307.112 377.573 306.219 379.949 306.174C382.397 306.126 383.634 306.823 383.662 308.263C383.679 309.126 383.409 310.104 382.854 311.195C382.298 312.214 381.444 312.734 380.292 312.756C379.86 312.765 379.389 312.63 378.88 312.351C378.369 312.001 377.861 311.831 377.358 311.841C375.918 311.868 373.659 312.38 370.582 313.375C367.504 314.371 364.724 315.828 362.24 317.748C359.757 319.669 358.541 321.96 358.592 324.624C358.625 326.352 359.622 327.629 361.582 328.455C363.613 329.208 367.34 330.145 372.762 331.265C373.414 331.468 374.066 331.636 374.716 331.767C375.366 331.827 375.944 331.923 376.45 332.058C382.018 333.247 386.294 334.641 389.277 336.24C392.261 337.839 393.784 340.294 393.848 343.605C393.909 346.773 392.672 349.857 390.137 352.858C387.673 355.786 384.37 358.154 380.228 359.962C376.087 361.842 371.75 362.826 367.214 362.913ZM473.639 361.837C472.919 361.851 472.304 361.683 471.793 361.333C471.283 361.054 471.023 360.627 471.012 360.051L471.085 352.597C471.274 343.735 471.315 336.497 471.207 330.882C471.049 322.676 470.363 316.964 469.149 313.747C467.933 310.458 466.57 308.827 465.058 308.857C461.675 308.922 457.528 314.258 452.62 324.867C447.71 335.403 442.998 346.908 438.485 359.381C438.145 360.396 437.659 361.377 437.03 362.326C436.472 363.273 435.869 363.752 435.221 363.765C433.637 363.795 432.836 363.307 432.816 362.299C432.732 357.908 432.394 349.705 431.803 337.69C431.21 325.603 430.769 317.654 430.479 313.843C429.584 300.97 428.819 293.027 428.185 290.015C427.551 287.002 427.231 285.388 427.227 285.172C427.213 284.452 427.599 283.905 428.384 283.529C429.169 283.154 430.173 282.955 431.397 282.931C432.405 282.912 433.169 285.202 433.689 289.801C434.281 294.326 434.753 300.15 435.106 307.273L435.272 310.294C435.459 312.523 435.69 318.927 435.966 329.508C436.24 340.017 436.425 347.755 436.521 352.722C439.673 344.38 442.626 336.941 445.381 330.407C448.208 323.872 451.475 317.76 455.182 312.071C458.888 306.311 462.36 303.399 465.6 303.337C468.335 303.284 470.683 305.544 472.644 310.115C474.602 314.614 475.669 321.399 475.844 330.469C475.921 334.5 476.101 340.114 476.384 347.31L476.71 358.646C476.727 359.509 476.453 360.235 475.888 360.822C475.324 361.481 474.575 361.819 473.639 361.837ZM528.617 330.21C528.642 331.505 527.725 334.368 525.865 338.796C524.078 343.223 521.277 347.346 517.462 351.164C513.719 354.981 509.039 356.943 503.424 357.051C498.817 357.14 494.938 355.774 491.787 352.954C488.637 350.135 487.004 345.737 486.889 339.762C486.781 334.147 487.97 328.579 490.456 323.059C492.941 317.466 496.238 312.901 500.346 309.366C504.454 305.758 508.739 303.911 513.202 303.825C515.866 303.774 518.109 304.343 519.932 305.532C521.826 306.648 522.794 308.322 522.837 310.553C522.886 313.073 521.493 315.548 518.66 317.979C515.898 320.409 512.267 322.567 507.766 324.454C503.266 326.341 498.611 327.726 493.803 328.611C493.003 331.939 492.634 335.187 492.695 338.354C492.775 342.53 493.809 345.75 495.797 348.016C497.857 350.281 500.723 351.378 504.394 351.308C509.937 351.201 514.398 349.135 517.777 345.109C521.156 341.083 523.95 336.565 526.158 331.553C526.296 331.262 526.538 330.718 526.883 329.919C527.226 329.048 527.542 328.61 527.83 328.604C528.334 328.595 528.596 329.13 528.617 330.21ZM511.992 308.277C509.256 308.33 506.646 309.28 504.161 311.129C501.676 312.977 499.594 315.177 497.915 317.73C496.308 320.281 495.271 322.534 494.804 324.487C498.109 324.063 501.582 323.06 505.224 321.478C508.867 319.896 511.894 318.181 514.307 316.334C516.792 314.486 518.023 312.986 518.001 311.834C517.979 310.683 517.35 309.795 516.114 309.17C514.949 308.545 513.575 308.247 511.992 308.277ZM567.813 313.36C567.31 313.37 566.801 313.164 566.289 312.742C565.849 312.318 565.333 311.716 564.742 310.935C564.224 310.225 563.529 309.626 562.655 309.139C561.854 308.65 561.021 308.414 560.157 308.431C558.07 308.471 555.315 311.296 551.895 316.907C548.473 322.446 545.15 329.423 541.928 337.839C542.031 339.493 542.18 341.579 542.372 344.096C542.637 346.611 542.817 348.48 542.912 349.702L543.319 354.015C543.338 355.023 543.139 355.891 542.721 356.619C542.304 357.419 541.52 357.83 540.368 357.853C539.145 357.876 538.322 356.272 537.899 353.039C537.476 349.735 537.168 344.952 536.975 338.69C536.873 337.108 536.757 334.842 536.628 331.892C536.571 328.94 536.432 325.414 536.209 321.314C535.873 315.127 535.68 310.702 535.629 308.039C535.597 306.383 536.589 305.536 538.605 305.497C539.828 305.473 540.559 305.999 540.795 307.075C541.103 308.077 541.285 310.054 541.342 313.006L541.672 330.174C543.725 324.59 545.972 319.758 548.414 315.678C550.856 311.598 553.245 308.492 555.58 306.358C557.986 304.152 560.125 303.03 561.997 302.994C563.581 302.964 565.099 303.295 566.553 303.987C568.006 304.679 569.176 305.593 570.062 306.728C570.947 307.791 571.399 308.827 571.418 309.834C571.431 310.482 570.977 311.247 570.058 312.129C569.21 312.937 568.461 313.348 567.813 313.36ZM618.664 328.477C618.689 329.772 617.772 332.635 615.913 337.063C614.126 341.49 611.325 345.613 607.51 349.431C603.766 353.248 599.087 355.21 593.472 355.318C588.865 355.407 584.986 354.041 581.835 351.222C578.684 348.402 577.051 344.004 576.936 338.029C576.828 332.414 578.018 326.847 580.504 321.326C582.989 315.733 586.285 311.169 590.394 307.633C594.501 304.025 598.787 302.178 603.25 302.092C605.913 302.041 608.157 302.61 609.98 303.799C611.874 304.915 612.842 306.589 612.885 308.82C612.934 311.34 611.541 313.815 608.707 316.246C605.945 318.676 602.314 320.834 597.814 322.721C593.313 324.608 588.659 325.994 583.851 326.878C583.051 330.206 582.682 333.454 582.742 336.621C582.823 340.797 583.857 344.017 585.845 346.283C587.905 348.548 590.771 349.645 594.442 349.575C599.985 349.468 604.446 347.402 607.825 343.376C611.204 339.35 613.998 334.832 616.206 329.82C616.344 329.53 616.586 328.985 616.931 328.186C617.274 327.315 617.589 326.877 617.877 326.872C618.381 326.862 618.644 327.397 618.664 328.477ZM602.039 306.545C599.304 306.597 596.694 307.548 594.209 309.396C591.724 311.244 589.642 313.444 587.963 315.997C586.355 318.549 585.319 320.801 584.852 322.754C588.157 322.331 591.63 321.328 595.272 319.745C598.914 318.163 601.942 316.448 604.355 314.601C606.84 312.753 608.071 311.253 608.049 310.102C608.027 308.95 607.398 308.062 606.161 307.437C604.997 306.812 603.623 306.514 602.039 306.545Z" fill="#333333"/>
<path d="M348.172 68.6076C349.52 80.8237 350.994 92.9571 352.092 105.172C353.741 123.181 355.39 141.191 356.539 159.198C357.533 175.078 357.819 191.039 358.313 206.958C358.38 209.75 358.156 212.624 357.599 215.371C356.185 222.363 353.294 225.139 346.249 225.766C332.075 227.062 317.859 228.273 303.645 229.277C294.725 229.894 291.49 227.209 291.456 218.375C291.345 186.207 291.609 154 291.747 121.834C291.83 107.126 291.913 92.3758 291.998 77.0844C288.621 77.5655 284.243 78.0409 279.947 78.7669C276.819 79.291 274.907 78.4886 275.552 74.9505C276.069 71.9117 276.13 68.4536 277.685 65.9623C288.619 48.19 299.843 30.586 310.983 12.9399C311.782 11.6943 312.83 10.5752 313.836 9.49747C319.411 3.52863 323.12 3.42443 328.085 9.70236C338.843 23.1796 349.391 36.8639 359.982 50.4652C360.975 51.7625 361.758 53.2669 362.583 54.6882C364.771 58.3672 364.171 61.4055 360.202 63.3C356.316 65.1532 352.349 66.756 348.172 68.6076ZM284.575 70.876C287.996 70.1035 290.708 69.4937 293.419 68.8839C297.591 67.9906 300.374 69.5063 300.892 73.8009C301.528 79.2212 302.081 84.6827 302.009 90.0991C301.659 122.764 301.059 155.428 300.584 188.093C300.437 199.467 300.457 210.842 300.393 222.259C316.238 220.223 332.249 218.187 348.469 216.153C347.654 198.065 346.879 180.185 346.063 162.306C344.767 133.34 343.346 104.331 342.217 75.366C341.783 63.655 342.074 63.6567 353.469 60.1788C353.72 60.0969 355.014 59.6458 354.392 59.1007C343.138 44.829 331.802 30.4735 320.259 15.8252C308.28 34.3 296.596 52.3181 284.575 70.876Z" fill="black"/>
</svg>
