<svg width="361" height="85" viewBox="0 0 361 85" fill="none" xmlns="http://www.w3.org/2000/svg">
<path d="M65.5283 50.6124C65.2432 54.5066 64.6417 58.803 63.724 63.5015C62.8062 68.2 61.66 72.2548 60.2854 75.6659C58.9094 79.005 57.4655 80.6891 55.9538 80.7182C55.018 80.7362 53.907 79.1373 52.6209 75.9214C51.3348 72.7056 49.6596 67.9849 47.5955 61.7595L45.6434 55.7479C44.2673 51.5977 42.7466 47.4141 41.0811 43.1974C39.4143 38.9087 38.1316 35.8728 37.2332 34.0898L32.8955 50.0522C28.9281 64.6752 26.0246 74.7049 24.1848 80.1413C24.1156 80.2867 23.9093 80.7948 23.566 81.6655C23.2961 82.6069 22.7693 83.3012 21.9858 83.7483C21.2036 84.2675 20.1647 84.5395 18.8689 84.5644C18.581 84.57 17.9331 82.7101 16.9252 78.9848C15.9893 75.2581 15.0099 71.1362 13.9868 66.619C11.4131 56.3707 10.0487 50.9599 9.89368 50.3868C8.03024 43.3653 6.48868 38.102 5.26902 34.5969C4.12134 31.0903 3.10865 28.9854 2.23096 28.2821C0.989173 27.3699 0.357892 26.3738 0.337112 25.294C0.327415 24.7901 0.676959 24.2433 1.38574 23.6535C2.16513 22.9904 3.05873 22.6492 4.06654 22.6298C4.93038 22.6131 5.61564 22.672 6.12232 22.8063C6.62761 22.8685 7.02908 23.1489 7.32672 23.6472C8.3664 25.2835 10.4444 32.2288 13.5608 44.4831C13.8667 45.4134 14.2537 46.8102 14.7216 48.6736C16.3539 54.9073 17.7175 60.2821 18.8126 64.7979C19.4328 67.0903 19.9409 69.169 20.3369 71.0337C20.8034 72.825 21.1897 74.1859 21.4956 75.1161C21.5551 74.4669 22.2265 71.9335 23.5098 67.516C25.744 60.1276 27.4599 53.8655 28.6573 48.7295C29.9253 43.5201 31.1026 39.2127 32.1893 35.8071C33.2746 32.3296 34.1329 30.1527 34.7641 29.2764C35.1863 28.7641 35.7539 28.3211 36.4669 27.9474C37.2504 27.5002 38.0021 27.2697 38.722 27.2558C39.2259 27.2461 39.6253 27.4185 39.9201 27.7729C40.2136 28.0553 40.4732 28.4464 40.6989 28.9461C40.9245 29.4459 41.1488 29.8736 41.3717 30.2294C42.1192 31.6553 43.3292 34.6566 45.0016 39.2332C46.7459 43.8085 48.3089 48.3153 49.6906 52.7535L51.2979 57.6915C53.7552 65.6377 55.5494 70.9322 56.6805 73.5749C59.103 68.4873 60.6686 60.0316 61.3773 48.2078C61.7953 43.735 61.926 37.4313 61.7695 29.2968L61.4516 18.3929C61.4336 17.457 61.5291 16.8071 61.7382 16.443C61.9458 16.0069 62.4456 15.7813 63.2374 15.766C64.1013 15.7494 64.9347 16.0214 65.7376 16.5821C66.5391 17.0707 66.9462 17.639 66.9586 18.2869C67.0584 23.4699 66.9491 29.0171 66.6308 34.9283C66.3124 40.8395 65.945 46.0675 65.5283 50.6124ZM124.661 75.5073C124.677 76.3711 124.337 77.3859 123.639 78.5515C122.94 79.6452 122.23 80.1989 121.511 80.2128C120.287 80.2363 119.336 79.4985 118.659 77.9992C117.982 76.5 117.625 74.7425 117.586 72.7269C117.553 70.9992 117.561 65.8141 117.61 57.1715L117.639 53.0662C117.608 51.4105 117.153 50.2311 116.275 49.5278C113.141 55.0611 110.209 59.8704 107.479 63.9557C104.749 68.041 101.259 71.9249 97.0094 75.6073C92.758 79.2178 88.2568 81.0687 83.5057 81.1602C81.2021 81.2045 79.3886 80.5193 78.0651 79.1045C76.8137 77.6883 76.1658 75.8284 76.1214 73.5248C76.066 70.6454 77.2863 66.6971 79.7822 61.6802C82.2768 56.5913 85.4905 51.4525 89.4234 46.2638C93.3549 41.0032 97.3044 36.6784 101.272 33.2895C103.894 31.0786 105.99 29.598 107.56 28.8477C109.128 28.0253 110.524 27.6024 111.748 27.5788C112.9 27.5567 114.095 27.8938 115.332 28.5901C116.57 29.2864 117.633 30.2741 118.522 31.5533C119.411 32.8324 119.871 34.2998 119.903 35.9555C119.946 38.1871 119.375 40.3225 118.19 42.3616L120.015 41.7864C120.807 41.7712 121.293 42.734 121.475 44.6749C121.569 45.8253 121.686 48.1635 121.826 51.6894C122.038 55.214 122.202 58.1274 122.318 60.4296C122.436 62.8037 122.552 65.1059 122.667 67.3361C122.782 69.5663 122.888 71.3286 122.985 72.623C123.066 73.1255 123.365 73.6599 123.88 74.2261C124.393 74.7203 124.654 75.1473 124.661 75.5073ZM114.682 45.3457C115.505 43.1695 115.892 40.8216 115.843 38.302C115.814 36.7903 115.321 35.5036 114.365 34.4418C113.479 33.3066 112.28 32.7536 110.768 32.7827C108.968 32.8173 106.688 34.0854 103.928 36.587C100.741 39.3848 97.3924 43.1219 93.8817 47.7983C90.3697 52.4028 87.4688 56.9594 85.1791 61.4683C82.8895 65.9772 81.7696 69.5274 81.8194 72.1189C81.861 74.2785 82.8896 75.3389 84.9052 75.3002C88.7925 75.2253 92.5081 73.7136 96.052 70.7648C99.5959 67.8161 102.734 64.3351 105.465 60.3218C108.267 56.2351 111.339 51.2431 114.682 45.3457ZM135.486 13.2955C134.262 13.319 132.992 12.8394 131.677 11.8565C130.434 10.8722 129.806 10.0562 129.794 9.40828C129.779 8.61642 130.124 7.85364 130.83 7.11992C131.608 6.38481 132.393 6.00964 133.185 5.9944C134.271 6.33356 135.182 6.89213 135.917 7.67013C136.504 8.23494 137.167 8.97834 137.905 9.90031C138.643 10.8223 139.014 11.3912 139.018 11.6072C139.039 12.687 137.861 13.2498 135.486 13.2955ZM140.042 81.6925C139.033 81.6399 138.246 80.0347 137.681 76.877C137.189 73.7179 136.605 67.716 135.931 58.8714C135.53 53.046 135.169 47.3639 134.846 41.8251C134.522 36.2143 134.295 31.8978 134.165 28.8758C134.15 28.0839 134.247 27.5059 134.456 27.1419C134.736 26.7044 135.235 26.4787 135.955 26.4649C137.611 26.433 138.668 27.0968 139.126 28.4562C139.584 29.8157 139.851 32.439 139.926 36.3263L140.063 49.07C140.203 56.3407 140.531 62.1675 141.047 66.5503C141.051 66.7663 141.42 69.0636 142.152 73.4424C142.714 76.4561 143.005 78.4669 143.024 79.4747C143.038 80.1946 142.725 80.7407 142.084 81.1131C141.516 81.5561 140.836 81.7492 140.042 81.6925ZM194.155 37.7672C187.554 39.0464 183.859 39.7657 183.07 39.9249L176.074 41.2477C176.147 44.991 176.258 48.9136 176.409 53.0155C176.632 57.1159 176.881 60.7118 177.157 63.8031C177.525 67.9728 178.091 71.1665 178.853 73.3842C179.616 75.6019 180.036 76.8541 180.114 77.1406C180.128 77.8605 179.672 78.5174 178.748 79.1113C177.896 79.7758 177.075 80.1157 176.283 80.1309C175.851 80.1392 175.488 80.0022 175.195 79.7198C174.902 79.5093 174.643 79.1183 174.416 78.5465C173.965 77.547 173.497 75.6837 173.012 72.9565C172.599 70.2279 172.253 67.21 171.974 63.9028C171.701 60.9555 171.455 57.5396 171.236 53.6551C171.088 49.6972 170.979 45.8826 170.908 42.2113C166.889 42.9368 162.765 43.8083 158.536 44.8258C154.736 45.6911 152.476 46.1307 151.756 46.1445C150.892 46.1611 150.06 45.9251 149.258 45.4364C148.529 44.9464 148.155 44.2694 148.139 43.4056C148.121 42.4698 148.433 41.8517 149.075 41.5512C149.718 41.2508 150.795 41.0861 152.306 41.057C153.386 41.0362 154.966 40.8258 157.047 40.4257C159.126 39.9536 160.453 39.64 161.026 39.4849C165.831 38.4563 169.095 37.7814 170.817 37.4602C170.788 35.9485 170.677 33.9702 170.486 31.5254C170.279 28.2168 170.158 25.6987 170.125 23.971C170.071 21.1635 170.101 19.0025 170.216 17.488C170.402 15.9002 170.735 14.4895 171.215 13.256C171.763 11.8052 172.829 11.0646 174.413 11.0341C175.061 11.0216 175.495 11.1213 175.715 11.3331C175.935 11.5449 176.051 11.9387 176.062 12.5146C176.07 12.9466 175.914 14.2098 175.594 16.3043C175.275 18.3989 175.148 21.1738 175.215 24.6292C175.266 27.2927 175.395 30.2787 175.603 33.5874L175.767 36.5007C178.997 35.9345 185.378 34.4795 194.911 32.1356C195.484 31.9806 195.942 31.4676 196.285 30.5969C196.701 29.7247 197.124 29.2845 197.556 29.2762C198.348 29.2609 199.149 29.7136 199.959 30.6342C200.839 31.4814 201.288 32.3729 201.306 33.3088C201.33 34.5325 200.808 35.4788 199.741 36.1474C198.745 36.8147 196.883 37.3546 194.155 37.7672ZM308.17 72.84C307.306 72.8566 306.621 72.8338 306.116 72.7715C305.609 72.6372 305.243 72.3202 305.018 71.8205C304.349 70.7531 303.531 67.5643 302.565 62.2539C301.599 56.9435 300.653 50.8405 299.728 43.9451C297.595 22.8862 296.056 12.1498 295.112 11.7359C294.353 13.4788 293.192 16.7778 291.629 21.6328C290.065 26.4157 288.277 32.6793 286.266 40.4234C284.05 48.7476 282.36 54.5052 281.197 57.6961C280.033 60.8151 278.99 62.7435 278.068 63.4814C277.502 63.9964 276.792 64.5142 275.938 65.0347C275.154 65.4819 274.474 65.711 273.899 65.7221C273.179 65.7359 272.709 65.6729 272.491 65.5331C272.27 65.3213 272.007 64.7503 271.702 63.82C271.393 62.7457 270.644 59.4115 269.457 53.8173C268.267 48.1512 267.341 43.056 266.678 38.532L265.943 34.0093C264.539 24.6745 263.611 19.4714 263.158 18.4C261.814 19.65 260.571 22.4105 259.429 26.6812C258.285 30.88 256.996 36.8459 255.56 44.579C254.164 50.583 252.515 60.3365 250.614 73.8396C250.558 74.6328 250.032 75.3631 249.036 76.0303C248.041 76.6976 247.147 77.0389 246.355 77.0541C245.204 77.0763 244.534 75.9729 244.347 73.7441C244.232 71.5139 243.636 66.7005 242.557 59.3039C241.551 51.9059 240.633 45.4063 239.806 39.8052C238.644 31.8341 237.134 24.4458 235.274 17.6403C234.729 15.4904 234.453 14.2715 234.448 13.9835C234.427 12.9037 234.914 12.0302 235.91 11.3629C236.976 10.6223 238.12 10.2402 239.344 10.2166C239.92 10.2055 240.575 12.4254 241.309 16.8761C242.042 21.3268 242.834 26.9286 243.684 33.6815L244.077 37.2386C244.411 39.6086 244.782 42.0859 245.192 44.6705C246.772 55.6581 247.661 62.5543 247.859 65.359C249.138 56.9809 250.596 48.5632 252.234 40.1062L253.114 35.3363C254.551 27.6753 256.168 21.8831 257.965 17.9598C259.76 13.9645 262.134 11.9385 265.085 11.8817C266.021 11.8637 267.112 14.2911 268.358 19.1641C269.602 23.965 270.611 29.5986 271.383 36.065C271.976 40.6624 272.71 45.1491 273.587 49.5251C274.463 53.901 275.242 56.9466 275.923 58.6618C276.331 57.4297 277.143 54.7136 278.359 50.5134C279.646 46.3119 280.83 42.3284 281.909 38.5629C285.205 26.4733 288.742 15.6392 292.518 6.06077C293.209 4.5352 293.872 3.44224 294.507 2.78189C295.213 2.04817 296.43 1.66469 298.158 1.63144C299.094 1.61343 300.18 5.69728 301.418 13.883C302.656 22.0687 303.739 31.5536 304.666 42.3378C306.904 57.5615 308.827 65.842 310.437 67.1793C311.535 68.0944 312.094 69.0918 312.115 70.1716C312.125 70.6755 311.704 71.2597 310.853 71.9242C310.072 72.5153 309.178 72.8206 308.17 72.84ZM359.844 49.0533C359.869 50.3491 358.952 53.2113 357.093 57.6399C355.306 62.0671 352.505 66.1897 348.689 70.0079C344.946 73.8246 340.267 75.787 334.652 75.895C330.045 75.9837 326.166 74.6181 323.015 71.7982C319.864 68.9783 318.231 64.5809 318.116 58.606C318.008 52.991 319.197 47.4231 321.684 41.9022C324.169 36.3094 327.465 31.7451 331.574 28.2094C335.681 24.6017 339.967 22.7549 344.43 22.669C347.093 22.6178 349.337 23.1867 351.16 24.3759C353.054 25.4916 354.022 27.1653 354.065 29.3969C354.114 31.9164 352.721 34.3917 349.887 36.8227C347.125 39.2522 343.494 41.4105 338.994 43.2975C334.493 45.1844 329.839 46.5702 325.031 47.4549C324.231 50.7829 323.861 54.0306 323.922 57.198C324.003 61.3732 325.037 64.5939 327.025 66.8601C329.085 69.1249 331.95 70.222 335.622 70.1513C341.165 70.0446 345.626 67.9784 349.005 63.9527C352.384 59.9269 355.178 55.4083 357.386 50.3969C357.524 50.1062 357.766 49.5614 358.11 48.7627C358.454 47.8919 358.769 47.4537 359.057 47.4482C359.561 47.4385 359.824 47.9735 359.844 49.0533ZM343.219 27.1212C340.484 27.1738 337.874 28.1242 335.389 29.9723C332.904 31.8205 330.822 34.021 329.143 36.5737C327.535 39.1251 326.498 41.3775 326.032 43.3308C329.336 42.9072 332.81 41.9042 336.452 40.3218C340.094 38.7394 343.122 37.0249 345.535 35.1781C348.02 33.3299 349.251 31.83 349.229 30.6782C349.207 29.5264 348.577 28.6383 347.341 28.014C346.177 27.3883 344.803 27.0907 343.219 27.1212Z" fill="#333333"/>
</svg>
