<svg width="186" height="186" viewBox="0 0 186 186" fill="none" xmlns="http://www.w3.org/2000/svg">
<path d="M106.57 133.948C105.418 135.905 104.689 137.876 103.898 139.929C103.424 141.149 102.604 142.949 104.048 144.05C104.681 144.524 106.596 144.804 107.72 144.411C119.237 140.436 130.751 136.406 142.197 132.215C145.305 131.088 145.969 129.277 143.83 126.421C139.715 120.963 135.375 115.6 130.622 110.655C126.696 106.557 122.22 102.954 117.71 99.4979C115.455 97.7698 115.455 97.7698 114.07 98.2155C113.291 98.6165 113.131 100.955 113.252 102.287C113.437 104.5 113.584 106.484 114.131 109.246C99.3082 104.169 86.7287 97.6637 78.4787 84.0686C77.2679 82.075 76.4036 79.8231 75.6307 77.6088C72.6106 68.968 75.0404 60.9108 78.7983 53.1323C79.8747 50.9034 79.6171 49.5153 77.8139 48.0529C71.4752 42.9367 65.2386 37.7022 58.8489 32.6451C55.7885 30.212 53.7755 30.56 51.4729 33.8878C33.7473 59.7272 35.8658 90.9709 59.6292 113.293C68.3567 121.501 79.1515 126.045 90.3918 129.569C95.8856 131.346 100.854 132.453 106.57 133.948ZM107.672 139.716C108.342 138.282 108.834 137.149 109.409 136.076C111.343 132.41 110.873 131.148 106.926 129.766C106.268 129.549 105.613 129.387 104.945 129.192C94.2857 126.334 83.9605 122.598 74.1813 117.404C53.3995 106.351 39.8726 81.6118 46.0293 57.4021C47.9636 49.8359 50.7933 42.691 55.3112 36.053C61.8878 41.2403 68.3461 46.3255 74.9092 51.4805C74.5066 52.3302 74.1456 53.1435 73.7255 53.9058C66.3745 66.592 67.7588 78.8881 76.0329 90.4095C84.642 102.416 97.0415 109.035 110.928 113.139C112.434 113.571 114.001 113.788 115.541 113.94C118.833 114.251 119.043 112.895 118.653 110.464C118.445 109.15 117.729 106.798 117.498 105.475C126.2 111.99 134.311 120.399 140.568 128.767C129.637 132.422 118.866 136.009 107.672 139.716Z" fill="black"/>
</svg>
