<?xml version="1.0" standalone="no"?><!DOCTYPE svg PUBLIC "-//W3C//DTD SVG 1.1//EN" "http://www.w3.org/Graphics/SVG/1.1/DTD/svg11.dtd"><svg t="1655381484213" class="icon" viewBox="0 0 1024 1024" version="1.1" xmlns="http://www.w3.org/2000/svg" p-id="6571" data-spm-anchor-id="a313x.7781069.0.i22" xmlns:xlink="http://www.w3.org/1999/xlink" width="200" height="200"><defs><style type="text/css">@font-face { font-family: feedback-iconfont; src: url("//at.alicdn.com/t/font_1031158_u69w8yhxdu.woff2?t=1630033759944") format("woff2"), url("//at.alicdn.com/t/font_1031158_u69w8yhxdu.woff?t=1630033759944") format("woff"), url("//at.alicdn.com/t/font_1031158_u69w8yhxdu.ttf?t=1630033759944") format("truetype"); }
</style></defs><path  opacity=".4" d="M319.3 622.8c-4.3 0-8.5-1.6-11.8-4.9-6.5-6.5-6.5-17 0-23.5l79.8-79.8-79.8-79.8c-6.5-6.5-6.5-17 0-23.5s17-6.5 23.5 0l86.6 86.6c4.5 4.5 7 10.5 7 16.8 0 6.4-2.5 12.3-7 16.8L331 617.9c-3.2 3.3-7.5 4.9-11.7 4.9z m74.8-101.5h0.2-0.2z" fill="#ff6900" p-id="6572" data-spm-anchor-id="a313x.7781069.0.i23" class=""></path><path d="M469.1 622.8c-4.3 0-8.5-1.6-11.8-4.9-6.5-6.5-6.5-17 0-23.5l79.8-79.8-79.8-79.8c-6.5-6.5-6.5-17 0-23.5s17-6.5 23.5 0l86.6 86.6c9.3 9.3 9.3 24.4 0 33.6l-86.6 86.6c-3.2 3.1-7.5 4.7-11.7 4.7z m74.8-101.5h0.2-0.2z" fill="#ff6900" opacity=".7" p-id="6573" data-spm-anchor-id="a313x.7781069.0.i24" class="selected"></path><path d="M618.9 622.8c-4.3 0-8.5-1.6-11.8-4.9-6.5-6.5-6.5-17 0-23.5l79.8-79.8-79.8-79.8c-6.5-6.5-6.5-17 0-23.5s17-6.5 23.5 0l86.6 86.6c9.3 9.3 9.3 24.4 0 33.6l-86.6 86.6c-3.2 3.1-7.4 4.7-11.7 4.7z m74.8-101.5h0.2-0.2z" fill="#ff6900" opacity="1" p-id="6574" data-spm-anchor-id="a313x.7781069.0.i21" class="selected"></path></svg>